<?xml version="1.0" encoding="UTF-8"?>
<svg id="Layer_1" xmlns="http://www.w3.org/2000/svg" version="1.1" viewBox="0 0 800 800">
  <!-- Generator: Adobe Illustrator 30.0.0, SVG Export Plug-In . SVG Version: 2.1.1 Build 123)  -->
  <defs>
    <style>
      .st0 {
        fill: #fff;
      }

      .st1 {
        fill: #8a05ff;
      }
    </style>
  </defs>
  <rect class="st1" width="800" height="800"/>
  <path class="st0" d="M654.17,263.04c-.07-1.7-.22-3.36-.37-5.06-.04-.41-.04-.85-.11-1.26-.11-1.03-.26-2.03-.41-3.07-.15-1.07-.26-2.11-.41-3.14-.11-.74-.26-1.48-.41-2.18-.22-1.29-.44-2.62-.7-3.91-.22-1.03-.48-2.03-.7-3.07-.22-1-.44-1.96-.66-2.95-.26-1.03-.59-2.03-.89-3.07-.26-.96-.52-1.88-.81-2.84-.33-1.03-.7-2.07-1.07-3.1-.3-.89-.59-1.77-.89-2.66-.48-1.29-1-2.55-1.48-3.8-.26-.63-.48-1.22-.74-1.85-.59-1.37-1.18-2.7-1.81-4.03-.22-.48-.44-1-.66-1.48-.59-1.26-1.26-2.47-1.88-3.69-.3-.55-.55-1.11-.85-1.66-.74-1.37-1.55-2.73-2.33-4.06-.22-.37-.41-.74-.63-1.11-.85-1.4-1.74-2.77-2.66-4.14-.19-.3-.37-.59-.56-.89-1.11-1.63-2.25-3.25-3.44-4.84-1.11-1.48-2.25-2.96-3.44-4.4-.07-.11-.15-.22-.26-.33-22.84-27.67-57.31-45.25-95.93-45.28v-.07l-.11.07h.04c-10.72,0-21.14,1.37-31.08,3.92-5.95,1.52-11.75,3.51-17.33,5.84-1.85.78-3.7,1.62-5.51,2.47-36.69,17.65-63.3,52.82-69.17,94.63h-.07c-2.59,17.91-8.09,34.87-15.93,50.46h.26c-27.27,54.07-83.29,91.2-148.03,91.2-28.9,0-56.02-7.39-79.67-20.35-2.77-1.52-6.13.48-6.13,3.62v16.73h-.26v248.47h248.62v-124.25h.26v-62.13c0-34.31,27.83-62.13,62.15-62.13h62.15c10.64,0,20.95-1.37,30.82-3.92,5.95-1.55,11.75-3.51,17.33-5.84,1.85-.78,3.7-1.62,5.51-2.47,38.02-18.32,65.3-55.44,69.77-99.29.41-4.17.63-8.42.63-12.71,0-2.14-.04-4.28-.15-6.39Z"/>
</svg>